<!DOCTYPE svg PUBLIC "-//W3C//DTD SVG 1.1//EN" "http://www.w3.org/Graphics/SVG/1.1/DTD/svg11.dtd">
<!-- Uploaded to: SVG Repo, www.svgrepo.com, Transformed by: SVG Repo Mixer Tools -->
<svg fill="#000000" width="800px" height="800px" viewBox="-5.12 -5.12 522.24 522.24" id="_x30_1" version="1.1" xml:space="preserve" xmlns="http://www.w3.org/2000/svg" xmlns:xlink="http://www.w3.org/1999/xlink" stroke="#000000">
<g id="SVGRepo_bgCarrier" stroke-width="0">
<rect x="-5.12" y="-5.12" width="522.24" height="522.24" rx="261.12" fill="#2bffff" strokewidth="0"/>
</g>
<g id="SVGRepo_tracerCarrier" stroke-linecap="round" stroke-linejoin="round"/>
<g id="SVGRepo_iconCarrier">
<path d="M256,0C114.615,0,0,114.615,0,256s114.615,256,256,256s256-114.615,256-256S397.385,0,256,0z M268.792,387.126 c-8.09,3.916-17.495,3.916-25.584,0c-113.47-54.927-183.189-167.497-118.272-240c28.619-31.964,77.901-33.964,107.943-3.376 C248.293,159.443,256,180.306,256,201.169c0-20.863,7.707-41.726,23.121-57.42c30.042-30.587,79.324-28.587,107.943,3.377 C451.981,219.629,382.262,332.198,268.792,387.126z"/>
</g>
</svg>